<?xml version="1.0" encoding="UTF-8"?>
<svg xmlns="http://www.w3.org/2000/svg" xmlns:xlink="http://www.w3.org/1999/xlink" viewBox="125 165 928 364" preserveAspectRatio="xMinYMid meet">
<path fill-rule="nonzero" fill="rgb(92.897034%, 9.777832%, 18.579102%)" fill-opacity="1" d="M 281.46875 175.398438 L 135.523438 511.679688 L 205.101562 511.679688 L 229.1875 453.855469 L 353.066406 453.855469 L 327.046875 394.582031 L 253.875 394.582031 L 308.582031 263.238281 L 412.066406 511.679688 L 481.640625 511.679688 L 335.695312 175.398438 L 281.46875 175.398438 "/>
<path fill-rule="nonzero" fill="rgb(92.897034%, 9.777832%, 18.579102%)" fill-opacity="1" d="M 978.972656 223.457031 L 978.972656 394.527344 L 840.996094 223.457031 L 785.390625 223.457031 L 785.390625 511.679688 L 849.214844 511.679688 L 849.214844 333.894531 L 992.640625 511.679688 L 1042.800781 511.679688 L 1042.800781 223.457031 L 978.972656 223.457031 "/>
<path fill-rule="nonzero" fill="rgb(92.897034%, 9.777832%, 18.579102%)" fill-opacity="1" d="M 609.101562 454.867188 C 560.964844 454.867188 521.800781 415.703125 521.800781 367.566406 C 521.800781 319.429688 560.964844 280.269531 609.101562 280.269531 C 657.238281 280.269531 696.402344 319.429688 696.402344 367.566406 C 696.402344 415.703125 657.238281 454.867188 609.101562 454.867188 Z M 609.101562 216.445312 C 525.769531 216.445312 457.976562 284.238281 457.976562 367.566406 C 457.976562 450.898438 525.769531 518.691406 609.101562 518.691406 C 692.433594 518.691406 760.226562 450.898438 760.226562 367.566406 C 760.226562 284.238281 692.433594 216.445312 609.101562 216.445312 "/>
</svg>
